<svg xmlns="http://www.w3.org/2000/svg" viewBox="0 0 1600 900" preserveAspectRatio="xMidYMid slice">
  <defs>
    <linearGradient id="sky" x1="0" y1="0" x2="0" y2="1">
      <stop offset="0" stop-color="#17194A"/>
      <stop offset="0.55" stop-color="#071A3D"/>
      <stop offset="1" stop-color="#061126"/>
    </linearGradient>
    <radialGradient id="glow" cx="20%" cy="25%" r="45%">
      <stop offset="0" stop-color="#00A6D6" stop-opacity="0.45"/>
      <stop offset="1" stop-color="#00A6D6" stop-opacity="0"/>
    </radialGradient>
    <radialGradient id="glow2" cx="82%" cy="22%" r="32%">
      <stop offset="0" stop-color="#FFFFFF" stop-opacity="0.18"/>
      <stop offset="1" stop-color="#FFFFFF" stop-opacity="0"/>
    </radialGradient>
  </defs>
  <rect width="1600" height="900" fill="url(#sky)"/>
  <rect width="1600" height="900" fill="url(#glow)"/>
  <rect width="1600" height="900" fill="url(#glow2)"/>
  <g opacity="0.23" fill="#EAF8FF">
    <path d="M0 640 L130 520 L250 620 L390 470 L555 650 L720 500 L900 645 L1060 520 L1240 655 L1410 500 L1600 640 V900 H0 Z"/>
  </g>
  <g opacity="0.14" fill="#FFFFFF">
    <path d="M0 720 L190 615 L310 690 L470 560 L640 715 L795 600 L990 720 L1130 590 L1330 730 L1500 585 L1600 650 V900 H0 Z"/>
  </g>
  <g opacity="0.9" fill="#FFFFFF">
    <circle cx="130" cy="130" r="3"/><circle cx="280" cy="85" r="2"/><circle cx="420" cy="180" r="2.5"/><circle cx="620" cy="120" r="3"/><circle cx="820" cy="210" r="2"/><circle cx="990" cy="100" r="3"/><circle cx="1180" cy="170" r="2"/><circle cx="1390" cy="100" r="3"/><circle cx="1500" cy="250" r="2"/>
    <circle cx="180" cy="320" r="2"/><circle cx="360" cy="280" r="3"/><circle cx="570" cy="340" r="2"/><circle cx="780" cy="300" r="2.5"/><circle cx="1080" cy="330" r="2"/><circle cx="1310" cy="310" r="3"/>
  </g>
</svg>
